<svg xmlns="http://www.w3.org/2000/svg" xmlns:xlink="http://www.w3.org/1999/xlink" width="300" zoomAndPan="magnify" viewBox="0 0 224.87999 44.999999" height="60" preserveAspectRatio="xMidYMid meet" version="1.0"><defs><g/></defs><g fill="#2c3e50" fill-opacity="1"><g transform="translate(64.776636, 19.92172)"><g><path d="M 2.625 -3.03125 L 2.625 0 L 0.75 0 L 0.75 -8.484375 L 3.9375 -8.484375 C 4.394531 -8.484375 4.820312 -8.367188 5.21875 -8.140625 C 5.613281 -7.910156 5.929688 -7.59375 6.171875 -7.1875 C 6.410156 -6.78125 6.53125 -6.304688 6.53125 -5.765625 C 6.53125 -5.191406 6.410156 -4.703125 6.171875 -4.296875 C 5.929688 -3.890625 5.613281 -3.578125 5.21875 -3.359375 C 4.820312 -3.140625 4.394531 -3.03125 3.9375 -3.03125 Z M 3.625 -7.015625 L 2.625 -7.015625 L 2.625 -4.5 L 3.625 -4.5 C 3.894531 -4.5 4.148438 -4.609375 4.390625 -4.828125 C 4.628906 -5.046875 4.75 -5.359375 4.75 -5.765625 C 4.75 -6.160156 4.628906 -6.46875 4.390625 -6.6875 C 4.148438 -6.90625 3.894531 -7.015625 3.625 -7.015625 Z M 3.625 -7.015625 "/></g></g></g><g fill="#2c3e50" fill-opacity="1"><g transform="translate(75.318974, 19.92172)"><g><path d="M 5.375 -3.25 L 4.296875 -6.265625 L 3.21875 -3.25 Z M 8.546875 0 L 6.53125 0 L 5.921875 -1.703125 L 2.6875 -1.703125 L 2.078125 0 L 0.0625 0 L 3.515625 -8.484375 L 5.09375 -8.484375 Z M 8.546875 0 "/></g></g></g><g fill="#2c3e50" fill-opacity="1"><g transform="translate(87.74456, 19.92172)"><g><path d="M 4.359375 -6.796875 L 4.359375 0 L 2.484375 0 L 2.484375 -6.796875 L 0.0625 -6.796875 L 0.0625 -8.484375 L 6.78125 -8.484375 L 6.78125 -6.796875 Z M 4.359375 -6.796875 "/></g></g></g><g fill="#2c3e50" fill-opacity="1"><g transform="translate(98.411612, 19.92172)"><g><path d="M 3.265625 -9.359375 L 1.453125 -5.625 L 0.4375 -5.625 L 1.40625 -9.359375 Z M 3.265625 -9.359375 "/></g></g></g><g fill="#2c3e50" fill-opacity="1"><g transform="translate(105.623966, 19.92172)"><g/></g></g><g fill="#2c3e50" fill-opacity="1"><g transform="translate(112.574418, 19.92172)"><g><path d="M 2.625 0 L 0.75 0 L 0.75 -8.484375 L 2.625 -8.484375 Z M 2.625 0 "/></g></g></g><g fill="#2c3e50" fill-opacity="1"><g transform="translate(119.774301, 19.92172)"><g><path d="M 11.328125 0 L 9.28125 0 L 8.28125 -5.859375 L 6.609375 0 L 4.78125 0 L 3.125 -5.859375 L 2.125 0 L 0.0625 0 L 1.703125 -8.484375 L 3.9375 -8.484375 L 5.703125 -2.53125 L 7.46875 -8.484375 L 9.6875 -8.484375 Z M 11.328125 0 "/></g></g></g><g fill="#2c3e50" fill-opacity="1"><g transform="translate(134.993578, 19.92172)"><g><path d="M 11.328125 0 L 9.28125 0 L 8.28125 -5.859375 L 6.609375 0 L 4.78125 0 L 3.125 -5.859375 L 2.125 0 L 0.0625 0 L 1.703125 -8.484375 L 3.9375 -8.484375 L 5.703125 -2.53125 L 7.46875 -8.484375 L 9.6875 -8.484375 Z M 11.328125 0 "/></g></g></g><g fill="#2c3e50" fill-opacity="1"><g transform="translate(150.21285, 19.92172)"><g><path d="M 7.296875 -4.25 C 7.296875 -4.695312 7.179688 -5.109375 6.953125 -5.484375 C 6.722656 -5.867188 6.414062 -6.175781 6.03125 -6.40625 C 5.65625 -6.632812 5.25 -6.75 4.8125 -6.75 C 4.375 -6.75 3.960938 -6.632812 3.578125 -6.40625 C 3.203125 -6.175781 2.894531 -5.867188 2.65625 -5.484375 C 2.425781 -5.109375 2.3125 -4.695312 2.3125 -4.25 C 2.3125 -3.820312 2.425781 -3.414062 2.65625 -3.03125 C 2.894531 -2.644531 3.203125 -2.332031 3.578125 -2.09375 C 3.960938 -1.863281 4.375 -1.75 4.8125 -1.75 C 5.25 -1.75 5.65625 -1.863281 6.03125 -2.09375 C 6.414062 -2.332031 6.722656 -2.644531 6.953125 -3.03125 C 7.179688 -3.414062 7.296875 -3.820312 7.296875 -4.25 Z M 9.171875 -4.25 C 9.171875 -3.664062 9.054688 -3.109375 8.828125 -2.578125 C 8.597656 -2.046875 8.28125 -1.578125 7.875 -1.171875 C 7.46875 -0.773438 7 -0.457031 6.46875 -0.21875 C 5.945312 0.0078125 5.394531 0.125 4.8125 0.125 C 4.226562 0.125 3.671875 0.0078125 3.140625 -0.21875 C 2.609375 -0.457031 2.140625 -0.773438 1.734375 -1.171875 C 1.335938 -1.578125 1.019531 -2.046875 0.78125 -2.578125 C 0.550781 -3.109375 0.4375 -3.664062 0.4375 -4.25 C 0.4375 -4.832031 0.550781 -5.382812 0.78125 -5.90625 C 1.019531 -6.4375 1.335938 -6.90625 1.734375 -7.3125 C 2.140625 -7.71875 2.609375 -8.035156 3.140625 -8.265625 C 3.671875 -8.492188 4.226562 -8.609375 4.8125 -8.609375 C 5.394531 -8.609375 5.945312 -8.492188 6.46875 -8.265625 C 7 -8.035156 7.46875 -7.71875 7.875 -7.3125 C 8.28125 -6.90625 8.597656 -6.4375 8.828125 -5.90625 C 9.054688 -5.382812 9.171875 -4.832031 9.171875 -4.25 Z M 9.171875 -4.25 "/></g></g></g><path stroke-linecap="butt" transform="matrix(0.7496, -0.000000000000000279, 0.000000000000000279, 0.7496, 63.723023, 21.958833)" fill="none" stroke-linejoin="miter" d="M -0.000488942 1.998663 L 129.969881 1.998663 " stroke="#2c3e50" stroke-width="4" stroke-opacity="1" stroke-miterlimit="4"/><g fill="#2c3e50" fill-opacity="1"><g transform="translate(4.723763, 34.761319)"><g><path d="M 5.953125 -2.53125 L 5.90625 -2.203125 C 5.78125 -1.546875 5.457031 -1.003906 4.9375 -0.578125 C 4.40625 -0.148438 3.8125 0.0625 3.15625 0.0625 C 2.769531 0.0625 2.40625 -0.0078125 2.0625 -0.15625 C 1.726562 -0.300781 1.4375 -0.503906 1.1875 -0.765625 C 0.925781 -1.015625 0.722656 -1.304688 0.578125 -1.640625 C 0.429688 -1.984375 0.359375 -2.347656 0.359375 -2.734375 C 0.359375 -3.117188 0.429688 -3.484375 0.578125 -3.828125 C 0.722656 -4.160156 0.925781 -4.457031 1.1875 -4.71875 C 1.4375 -4.96875 1.726562 -5.164062 2.0625 -5.3125 C 2.40625 -5.457031 2.75 -5.53125 3.09375 -5.53125 C 3.75 -5.53125 4.320312 -5.347656 4.8125 -4.984375 C 5.3125 -4.617188 5.65625 -4.132812 5.84375 -3.53125 L 5.25 -3.53125 C 5.070312 -3.96875 4.796875 -4.316406 4.421875 -4.578125 C 4.035156 -4.835938 3.613281 -4.96875 3.15625 -4.96875 C 2.539062 -4.96875 2.015625 -4.75 1.578125 -4.3125 C 1.140625 -3.882812 0.921875 -3.359375 0.921875 -2.734375 C 0.921875 -2.128906 1.140625 -1.601562 1.578125 -1.15625 C 2.003906 -0.71875 2.53125 -0.5 3.15625 -0.5 C 3.644531 -0.5 4.09375 -0.640625 4.5 -0.921875 C 4.894531 -1.203125 5.171875 -1.578125 5.328125 -2.046875 L 3.125 -2.046875 L 3.125 -2.53125 Z M 5.953125 -2.53125 "/></g></g></g><g fill="#2c3e50" fill-opacity="1"><g transform="translate(14.525138, 34.761319)"><g><path d="M 3.828125 0 L 0.59375 0 L 0.59375 -5.421875 L 3.828125 -5.421875 L 3.828125 -4.90625 L 1.15625 -4.90625 L 1.15625 -2.984375 L 3.75 -2.984375 L 3.75 -2.453125 L 1.15625 -2.453125 L 1.15625 -0.515625 L 3.828125 -0.515625 Z M 3.828125 0 "/></g></g></g><g fill="#2c3e50" fill-opacity="1"><g transform="translate(22.433774, 34.761319)"><g><path d="M 2.109375 -2.5625 C 1.003906 -2.820312 0.453125 -3.296875 0.453125 -3.984375 C 0.453125 -4.492188 0.628906 -4.878906 0.984375 -5.140625 C 1.335938 -5.390625 1.753906 -5.515625 2.234375 -5.515625 C 3.296875 -5.515625 3.925781 -5.117188 4.125 -4.328125 L 3.515625 -4.328125 C 3.410156 -4.796875 2.984375 -5.03125 2.234375 -5.03125 C 1.710938 -5.03125 1.347656 -4.875 1.140625 -4.5625 C 1.054688 -4.445312 1.015625 -4.300781 1.015625 -4.125 C 1.015625 -3.789062 1.195312 -3.535156 1.5625 -3.359375 C 1.738281 -3.265625 2.101562 -3.144531 2.65625 -3 C 3.207031 -2.851562 3.609375 -2.691406 3.859375 -2.515625 C 4.203125 -2.273438 4.375 -1.9375 4.375 -1.5 C 4.375 -0.945312 4.160156 -0.53125 3.734375 -0.25 C 3.367188 -0.0078125 2.921875 0.109375 2.390625 0.109375 C 1.179688 0.109375 0.484375 -0.347656 0.296875 -1.265625 L 0.953125 -1.265625 C 1.054688 -0.691406 1.535156 -0.40625 2.390625 -0.40625 C 2.992188 -0.40625 3.414062 -0.570312 3.65625 -0.90625 C 3.75 -1.039062 3.796875 -1.222656 3.796875 -1.453125 C 3.796875 -1.671875 3.707031 -1.851562 3.53125 -2 C 3.28125 -2.207031 2.804688 -2.394531 2.109375 -2.5625 Z M 2.109375 -2.5625 "/></g></g></g><g fill="#2c3e50" fill-opacity="1"><g transform="translate(30.502136, 34.761319)"><g><path d="M 0.15625 -4.921875 L 0.15625 -5.453125 L 3.359375 -5.453125 L 3.359375 -4.921875 L 2.03125 -4.921875 L 2.03125 -0.015625 L 1.484375 -0.015625 L 1.484375 -4.921875 Z M 0.15625 -4.921875 "/></g></g></g><g fill="#2c3e50" fill-opacity="1"><g transform="translate(37.500348, 34.761319)"><g><path d="M 1.15625 0 L 0.59375 0 L 0.59375 -5.421875 L 1.15625 -5.421875 Z M 1.15625 0 "/></g></g></g><g fill="#2c3e50" fill-opacity="1"><g transform="translate(42.741582, 34.761319)"><g><path d="M 5.375 -2.734375 C 5.375 -3.347656 5.160156 -3.867188 4.734375 -4.296875 C 4.296875 -4.734375 3.765625 -4.953125 3.140625 -4.953125 C 2.535156 -4.953125 2.015625 -4.734375 1.578125 -4.296875 C 1.140625 -3.867188 0.921875 -3.347656 0.921875 -2.734375 C 0.921875 -2.109375 1.140625 -1.582031 1.578125 -1.15625 C 2.015625 -0.71875 2.535156 -0.5 3.140625 -0.5 C 3.765625 -0.5 4.296875 -0.71875 4.734375 -1.15625 C 5.160156 -1.582031 5.375 -2.109375 5.375 -2.734375 Z M 5.9375 -2.734375 C 5.9375 -2.347656 5.863281 -1.984375 5.71875 -1.640625 C 5.570312 -1.304688 5.375 -1.015625 5.125 -0.765625 C 4.875 -0.503906 4.578125 -0.300781 4.234375 -0.15625 C 3.890625 -0.0078125 3.523438 0.0625 3.140625 0.0625 C 2.765625 0.0625 2.40625 -0.0078125 2.0625 -0.15625 C 1.726562 -0.300781 1.4375 -0.503906 1.1875 -0.765625 C 0.925781 -1.015625 0.722656 -1.304688 0.578125 -1.640625 C 0.429688 -1.984375 0.359375 -2.347656 0.359375 -2.734375 C 0.359375 -3.117188 0.429688 -3.476562 0.578125 -3.8125 C 0.722656 -4.15625 0.925781 -4.453125 1.1875 -4.703125 C 1.4375 -4.953125 1.726562 -5.148438 2.0625 -5.296875 C 2.40625 -5.441406 2.765625 -5.515625 3.140625 -5.515625 C 3.523438 -5.515625 3.890625 -5.441406 4.234375 -5.296875 C 4.578125 -5.148438 4.875 -4.953125 5.125 -4.703125 C 5.375 -4.453125 5.570312 -4.15625 5.71875 -3.8125 C 5.863281 -3.476562 5.9375 -3.117188 5.9375 -2.734375 Z M 5.9375 -2.734375 "/></g></g></g><g fill="#2c3e50" fill-opacity="1"><g transform="translate(52.52699, 34.761319)"><g><path d="M 1.15625 -4 L 1.15625 0 L 0.59375 0 L 0.59375 -5.765625 L 3.65625 -1.4375 L 3.65625 -5.421875 L 4.203125 -5.421875 L 4.203125 0.328125 Z M 1.15625 -4 "/></g></g></g><g fill="#2c3e50" fill-opacity="1"><g transform="translate(60.818972, 34.761319)"><g/></g></g><g fill="#2c3e50" fill-opacity="1"><g transform="translate(66.459519, 34.761319)"><g><path d="M 1.15625 -0.5625 L 3.09375 -0.5625 L 3.09375 0 L 0.59375 0 L 0.59375 -5.421875 L 1.15625 -5.421875 Z M 1.15625 -0.5625 "/></g></g></g><g fill="#2c3e50" fill-opacity="1"><g transform="translate(73.202167, 34.761319)"><g><path d="M 5.375 -2.734375 C 5.375 -3.347656 5.160156 -3.867188 4.734375 -4.296875 C 4.296875 -4.734375 3.765625 -4.953125 3.140625 -4.953125 C 2.535156 -4.953125 2.015625 -4.734375 1.578125 -4.296875 C 1.140625 -3.867188 0.921875 -3.347656 0.921875 -2.734375 C 0.921875 -2.109375 1.140625 -1.582031 1.578125 -1.15625 C 2.015625 -0.71875 2.535156 -0.5 3.140625 -0.5 C 3.765625 -0.5 4.296875 -0.71875 4.734375 -1.15625 C 5.160156 -1.582031 5.375 -2.109375 5.375 -2.734375 Z M 5.9375 -2.734375 C 5.9375 -2.347656 5.863281 -1.984375 5.71875 -1.640625 C 5.570312 -1.304688 5.375 -1.015625 5.125 -0.765625 C 4.875 -0.503906 4.578125 -0.300781 4.234375 -0.15625 C 3.890625 -0.0078125 3.523438 0.0625 3.140625 0.0625 C 2.765625 0.0625 2.40625 -0.0078125 2.0625 -0.15625 C 1.726562 -0.300781 1.4375 -0.503906 1.1875 -0.765625 C 0.925781 -1.015625 0.722656 -1.304688 0.578125 -1.640625 C 0.429688 -1.984375 0.359375 -2.347656 0.359375 -2.734375 C 0.359375 -3.117188 0.429688 -3.476562 0.578125 -3.8125 C 0.722656 -4.15625 0.925781 -4.453125 1.1875 -4.703125 C 1.4375 -4.953125 1.726562 -5.148438 2.0625 -5.296875 C 2.40625 -5.441406 2.765625 -5.515625 3.140625 -5.515625 C 3.523438 -5.515625 3.890625 -5.441406 4.234375 -5.296875 C 4.578125 -5.148438 4.875 -4.953125 5.125 -4.703125 C 5.375 -4.453125 5.570312 -4.15625 5.71875 -3.8125 C 5.863281 -3.476562 5.9375 -3.117188 5.9375 -2.734375 Z M 5.9375 -2.734375 "/></g></g></g><g fill="#2c3e50" fill-opacity="1"><g transform="translate(82.987575, 34.761319)"><g><path d="M 5.578125 -1.65625 C 5.378906 -1.132812 5.050781 -0.71875 4.59375 -0.40625 C 4.125 -0.0820312 3.613281 0.078125 3.0625 0.078125 C 2.3125 0.078125 1.671875 -0.195312 1.140625 -0.75 C 0.617188 -1.289062 0.359375 -1.941406 0.359375 -2.703125 C 0.359375 -3.085938 0.425781 -3.445312 0.5625 -3.78125 C 0.707031 -4.113281 0.898438 -4.410156 1.140625 -4.671875 C 1.671875 -5.222656 2.3125 -5.5 3.0625 -5.5 C 3.613281 -5.5 4.117188 -5.34375 4.578125 -5.03125 C 5.035156 -4.707031 5.367188 -4.289062 5.578125 -3.78125 L 4.953125 -3.78125 C 4.660156 -4.3125 4.226562 -4.664062 3.65625 -4.84375 C 3.457031 -4.894531 3.234375 -4.921875 2.984375 -4.921875 C 2.734375 -4.921875 2.476562 -4.863281 2.21875 -4.75 C 1.957031 -4.625 1.734375 -4.460938 1.546875 -4.265625 C 1.128906 -3.828125 0.921875 -3.304688 0.921875 -2.703125 C 0.921875 -2.097656 1.128906 -1.582031 1.546875 -1.15625 C 1.960938 -0.71875 2.46875 -0.5 3.0625 -0.5 C 3.46875 -0.5 3.84375 -0.601562 4.1875 -0.8125 C 4.519531 -1.03125 4.78125 -1.3125 4.96875 -1.65625 Z M 5.578125 -1.65625 "/></g></g></g><g fill="#2c3e50" fill-opacity="1"><g transform="translate(92.293807, 34.761319)"><g><path d="M 1.484375 -2 L 3.453125 -2 L 2.46875 -4.5 Z M 4.84375 0 L 4.234375 0 L 3.65625 -1.484375 L 1.265625 -1.484375 L 0.6875 0 L 0.078125 0 L 2.46875 -5.796875 Z M 4.84375 0 "/></g></g></g><g fill="#2c3e50" fill-opacity="1"><g transform="translate(100.705583, 34.761319)"><g><path d="M 0.15625 -4.921875 L 0.15625 -5.453125 L 3.359375 -5.453125 L 3.359375 -4.921875 L 2.03125 -4.921875 L 2.03125 -0.015625 L 1.484375 -0.015625 L 1.484375 -4.921875 Z M 0.15625 -4.921875 "/></g></g></g><g fill="#2c3e50" fill-opacity="1"><g transform="translate(107.703795, 34.761319)"><g><path d="M 1.15625 0 L 0.59375 0 L 0.59375 -5.421875 L 1.15625 -5.421875 Z M 1.15625 0 "/></g></g></g><g fill="#2c3e50" fill-opacity="1"><g transform="translate(112.945029, 34.761319)"><g><path d="M 2.546875 0.328125 L 0.078125 -5.421875 L 0.6875 -5.421875 L 2.546875 -1.046875 L 4.40625 -5.421875 L 5 -5.421875 Z M 2.546875 0.328125 "/></g></g></g><g fill="#2c3e50" fill-opacity="1"><g transform="translate(121.51653, 34.761319)"><g><path d="M 3.828125 0 L 0.59375 0 L 0.59375 -5.421875 L 3.828125 -5.421875 L 3.828125 -4.90625 L 1.15625 -4.90625 L 1.15625 -2.984375 L 3.75 -2.984375 L 3.75 -2.453125 L 1.15625 -2.453125 L 1.15625 -0.515625 L 3.828125 -0.515625 Z M 3.828125 0 "/></g></g></g><g fill="#2c3e50" fill-opacity="1"><g transform="translate(129.425166, 34.761319)"><g/></g></g><g fill="#2c3e50" fill-opacity="1"><g transform="translate(135.065713, 34.761319)"><g><path d="M 1.15625 -2.6875 L 2.421875 -2.6875 C 2.734375 -2.6875 2.988281 -2.796875 3.1875 -3.015625 C 3.394531 -3.222656 3.5 -3.488281 3.5 -3.8125 C 3.5 -4.125 3.398438 -4.382812 3.203125 -4.59375 C 3.015625 -4.789062 2.753906 -4.890625 2.421875 -4.890625 L 1.15625 -4.890625 Z M 4.0625 -3.796875 C 4.0625 -3.316406 3.894531 -2.921875 3.5625 -2.609375 C 3.226562 -2.296875 2.820312 -2.140625 2.34375 -2.140625 L 1.15625 -2.140625 L 1.15625 0 L 0.59375 0 L 0.59375 -5.421875 L 2.34375 -5.421875 C 2.820312 -5.421875 3.226562 -5.269531 3.5625 -4.96875 C 3.894531 -4.664062 4.0625 -4.273438 4.0625 -3.796875 Z M 4.0625 -3.796875 "/></g></g></g><g fill="#2c3e50" fill-opacity="1"><g transform="translate(142.774701, 34.761319)"><g><path d="M 1.484375 -2 L 3.453125 -2 L 2.46875 -4.5 Z M 4.84375 0 L 4.234375 0 L 3.65625 -1.484375 L 1.265625 -1.484375 L 0.6875 0 L 0.078125 0 L 2.46875 -5.796875 Z M 4.84375 0 "/></g></g></g><g fill="#2c3e50" fill-opacity="1"><g transform="translate(151.186477, 34.761319)"><g><path d="M 2.703125 -2.5625 L 2.703125 0 L 2.140625 0 L 2.140625 -2.5625 L 0.078125 -5.421875 L 0.796875 -5.421875 L 2.421875 -3.109375 L 4.046875 -5.421875 L 4.75 -5.421875 Z M 2.703125 -2.5625 "/></g></g></g><g fill="#2c3e50" fill-opacity="1"><g transform="translate(159.502414, 34.761319)"><g><path d="M 2.109375 -2.5625 C 1.003906 -2.820312 0.453125 -3.296875 0.453125 -3.984375 C 0.453125 -4.492188 0.628906 -4.878906 0.984375 -5.140625 C 1.335938 -5.390625 1.753906 -5.515625 2.234375 -5.515625 C 3.296875 -5.515625 3.925781 -5.117188 4.125 -4.328125 L 3.515625 -4.328125 C 3.410156 -4.796875 2.984375 -5.03125 2.234375 -5.03125 C 1.710938 -5.03125 1.347656 -4.875 1.140625 -4.5625 C 1.054688 -4.445312 1.015625 -4.300781 1.015625 -4.125 C 1.015625 -3.789062 1.195312 -3.535156 1.5625 -3.359375 C 1.738281 -3.265625 2.101562 -3.144531 2.65625 -3 C 3.207031 -2.851562 3.609375 -2.691406 3.859375 -2.515625 C 4.203125 -2.273438 4.375 -1.9375 4.375 -1.5 C 4.375 -0.945312 4.160156 -0.53125 3.734375 -0.25 C 3.367188 -0.0078125 2.921875 0.109375 2.390625 0.109375 C 1.179688 0.109375 0.484375 -0.347656 0.296875 -1.265625 L 0.953125 -1.265625 C 1.054688 -0.691406 1.535156 -0.40625 2.390625 -0.40625 C 2.992188 -0.40625 3.414062 -0.570312 3.65625 -0.90625 C 3.75 -1.039062 3.796875 -1.222656 3.796875 -1.453125 C 3.796875 -1.671875 3.707031 -1.851562 3.53125 -2 C 3.28125 -2.207031 2.804688 -2.394531 2.109375 -2.5625 Z M 2.109375 -2.5625 "/></g></g></g><g fill="#2c3e50" fill-opacity="1"><g transform="translate(167.570776, 34.761319)"><g/></g></g><g fill="#2c3e50" fill-opacity="1"><g transform="translate(173.211322, 34.761319)"><g><path d="M 4.140625 -1.515625 C 4.140625 -1.296875 4.09375 -1.082031 4 -0.875 C 3.894531 -0.675781 3.753906 -0.515625 3.578125 -0.390625 C 3.253906 -0.128906 2.816406 0 2.265625 0 L 0.59375 0 L 0.59375 -5.421875 L 2.0625 -5.421875 C 2.851562 -5.421875 3.367188 -5.175781 3.609375 -4.6875 C 3.703125 -4.519531 3.75 -4.34375 3.75 -4.15625 C 3.75 -3.976562 3.734375 -3.835938 3.703125 -3.734375 C 3.671875 -3.628906 3.628906 -3.53125 3.578125 -3.4375 C 3.453125 -3.226562 3.296875 -3.082031 3.109375 -3 C 3.421875 -2.90625 3.671875 -2.734375 3.859375 -2.484375 C 4.046875 -2.222656 4.140625 -1.898438 4.140625 -1.515625 Z M 3.1875 -4.078125 C 3.1875 -4.617188 2.8125 -4.890625 2.0625 -4.890625 L 1.15625 -4.890625 L 1.15625 -3.203125 L 2.234375 -3.203125 C 2.515625 -3.203125 2.742188 -3.273438 2.921875 -3.421875 C 3.097656 -3.566406 3.1875 -3.785156 3.1875 -4.078125 Z M 3.578125 -1.625 C 3.578125 -1.78125 3.550781 -1.921875 3.5 -2.046875 C 3.4375 -2.171875 3.351562 -2.273438 3.25 -2.359375 C 3.039062 -2.546875 2.789062 -2.640625 2.5 -2.640625 L 1.15625 -2.640625 L 1.15625 -0.53125 L 2.421875 -0.53125 C 2.765625 -0.53125 3.039062 -0.628906 3.25 -0.828125 C 3.46875 -1.035156 3.578125 -1.300781 3.578125 -1.625 Z M 3.578125 -1.625 "/></g></g></g><g fill="#2c3e50" fill-opacity="1"><g transform="translate(181.000173, 34.761319)"><g><path d="M 1.484375 -2 L 3.453125 -2 L 2.46875 -4.5 Z M 4.84375 0 L 4.234375 0 L 3.65625 -1.484375 L 1.265625 -1.484375 L 0.6875 0 L 0.078125 0 L 2.46875 -5.796875 Z M 4.84375 0 "/></g></g></g><g fill="#2c3e50" fill-opacity="1"><g transform="translate(189.411949, 34.761319)"><g><path d="M 2.109375 -2.5625 C 1.003906 -2.820312 0.453125 -3.296875 0.453125 -3.984375 C 0.453125 -4.492188 0.628906 -4.878906 0.984375 -5.140625 C 1.335938 -5.390625 1.753906 -5.515625 2.234375 -5.515625 C 3.296875 -5.515625 3.925781 -5.117188 4.125 -4.328125 L 3.515625 -4.328125 C 3.410156 -4.796875 2.984375 -5.03125 2.234375 -5.03125 C 1.710938 -5.03125 1.347656 -4.875 1.140625 -4.5625 C 1.054688 -4.445312 1.015625 -4.300781 1.015625 -4.125 C 1.015625 -3.789062 1.195312 -3.535156 1.5625 -3.359375 C 1.738281 -3.265625 2.101562 -3.144531 2.65625 -3 C 3.207031 -2.851562 3.609375 -2.691406 3.859375 -2.515625 C 4.203125 -2.273438 4.375 -1.9375 4.375 -1.5 C 4.375 -0.945312 4.160156 -0.53125 3.734375 -0.25 C 3.367188 -0.0078125 2.921875 0.109375 2.390625 0.109375 C 1.179688 0.109375 0.484375 -0.347656 0.296875 -1.265625 L 0.953125 -1.265625 C 1.054688 -0.691406 1.535156 -0.40625 2.390625 -0.40625 C 2.992188 -0.40625 3.414062 -0.570312 3.65625 -0.90625 C 3.75 -1.039062 3.796875 -1.222656 3.796875 -1.453125 C 3.796875 -1.671875 3.707031 -1.851562 3.53125 -2 C 3.28125 -2.207031 2.804688 -2.394531 2.109375 -2.5625 Z M 2.109375 -2.5625 "/></g></g></g><g fill="#2c3e50" fill-opacity="1"><g transform="translate(197.48031, 34.761319)"><g><path d="M 5.9375 -2.703125 C 5.9375 -2.316406 5.863281 -1.957031 5.71875 -1.625 C 5.570312 -1.289062 5.375 -1 5.125 -0.75 C 4.957031 -0.582031 4.773438 -0.4375 4.578125 -0.3125 C 4.796875 -0.363281 5.003906 -0.410156 5.203125 -0.453125 L 6.015625 -0.453125 L 6.015625 0 L 3.8125 0 C 3.59375 0.0507812 3.367188 0.078125 3.140625 0.078125 C 2.765625 0.078125 2.40625 0.00390625 2.0625 -0.140625 C 1.726562 -0.285156 1.4375 -0.488281 1.1875 -0.75 C 0.925781 -1 0.722656 -1.289062 0.578125 -1.625 C 0.429688 -1.957031 0.359375 -2.316406 0.359375 -2.703125 C 0.359375 -3.085938 0.429688 -3.453125 0.578125 -3.796875 C 0.722656 -4.128906 0.925781 -4.425781 1.1875 -4.6875 C 1.4375 -4.9375 1.726562 -5.132812 2.0625 -5.28125 C 2.40625 -5.425781 2.765625 -5.5 3.140625 -5.5 C 3.523438 -5.5 3.890625 -5.425781 4.234375 -5.28125 C 4.578125 -5.132812 4.875 -4.9375 5.125 -4.6875 C 5.375 -4.425781 5.570312 -4.128906 5.71875 -3.796875 C 5.863281 -3.453125 5.9375 -3.085938 5.9375 -2.703125 Z M 5.375 -2.703125 C 5.375 -3.328125 5.160156 -3.851562 4.734375 -4.28125 C 4.296875 -4.71875 3.765625 -4.9375 3.140625 -4.9375 C 2.535156 -4.9375 2.015625 -4.71875 1.578125 -4.28125 C 1.140625 -3.851562 0.921875 -3.328125 0.921875 -2.703125 C 0.921875 -2.085938 1.140625 -1.566406 1.578125 -1.140625 C 2.015625 -0.703125 2.535156 -0.484375 3.140625 -0.484375 C 3.765625 -0.484375 4.296875 -0.703125 4.734375 -1.140625 C 5.160156 -1.566406 5.375 -2.085938 5.375 -2.703125 Z M 5.375 -2.703125 "/></g></g></g><g fill="#2c3e50" fill-opacity="1"><g transform="translate(207.225787, 34.761319)"><g><path d="M 4.53125 -1.796875 C 4.53125 -1.210938 4.335938 -0.75 3.953125 -0.40625 C 3.585938 -0.0820312 3.101562 0.078125 2.5 0.078125 C 1.894531 0.078125 1.410156 -0.0820312 1.046875 -0.40625 C 0.671875 -0.75 0.484375 -1.210938 0.484375 -1.796875 L 0.484375 -5.421875 L 1.03125 -5.421875 L 1.03125 -1.71875 C 1.03125 -1.3125 1.179688 -1 1.484375 -0.78125 C 1.742188 -0.582031 2.082031 -0.484375 2.5 -0.484375 C 3.164062 -0.484375 3.613281 -0.707031 3.84375 -1.15625 C 3.925781 -1.3125 3.96875 -1.5 3.96875 -1.71875 L 3.96875 -5.421875 L 4.53125 -5.421875 Z M 4.53125 -1.796875 "/></g></g></g><g fill="#2c3e50" fill-opacity="1"><g transform="translate(215.717426, 34.761319)"><g><path d="M 3.828125 0 L 0.59375 0 L 0.59375 -5.421875 L 3.828125 -5.421875 L 3.828125 -4.90625 L 1.15625 -4.90625 L 1.15625 -2.984375 L 3.75 -2.984375 L 3.75 -2.453125 L 1.15625 -2.453125 L 1.15625 -0.515625 L 3.828125 -0.515625 Z M 3.828125 0 "/></g></g></g></svg>